<?xml version="1.0" encoding="UTF-8"?>
<svg width="120px" height="35px" viewBox="0 0 120 35" version="1.1" xmlns="http://www.w3.org/2000/svg" xmlns:xlink="http://www.w3.org/1999/xlink">
    <!-- Generator: Sketch 52.3 (67297) - http://www.bohemiancoding.com/sketch -->
    <title>Group 2</title>
    <desc>Created with Sketch.</desc>
    <g id="Titta-här!" stroke="none" stroke-width="1" fill="none" fill-rule="evenodd">
        <g id="HEADER-+-FOOTER" transform="translate(-360.000000, -8.000000)" fill="#FE6658">
            <g id="Group-22" transform="translate(0.000000, -2.000000)">
                <g id="Group-2" transform="translate(360.000000, 10.000000)">
                    <path d="M28.1212121,17.5 L28.1212121,35 L35.1515152,35 L35.1515152,17.5 C35.1515152,7.83499484 27.2826026,0 17.5757576,0 C7.86891257,0 0,7.83499484 0,17.5 L0,35 L7.03030303,35 L7.03030303,17.5 C7.03030303,11.7010571 11.751711,7 17.5757576,7 C23.3998042,7 28.1212121,11.7010571 28.1212121,17.5" id="Fill-1-Copy"></path>
                    <path d="M109.454545,17.5 C109.454545,11.7010571 114.175651,7 120,7 L120,0 C110.293155,0 102.424242,7.83499484 102.424242,17.5 L102.424242,35 L109.454545,35 L109.454545,17.5 Z" id="Fill-3-Copy"></path>
                    <path d="M71.2735353,17.4998529 L66.2663223,22.4860213 L64.5385513,24.2065306 C64.1141601,24.6288375 63.7018511,25.0619727 63.2457437,25.4529975 C62.5186905,26.0771333 61.7424018,26.5800515 60.8748917,26.9891236 C56.4406824,29.080505 51.1437959,27.8496791 48.0969384,24.0200418 C45.0485705,20.1882991 45.0588405,14.7689955 48.1217071,10.9486827 C51.1815531,7.13197939 56.480252,5.92010314 60.9060036,8.02501998 C61.4481975,8.2827956 61.9589773,8.58117764 62.4495192,8.92678344 C64.1220136,7.26342389 65.7945079,5.60006434 67.4670022,3.93700558 C67.0121031,3.56763749 66.541497,3.22293404 66.0518612,2.90078973 C60.3897867,-0.825977879 53.0784764,-0.972762592 47.270206,2.52390193 C41.4619356,6.02026566 38.1948779,12.5350404 38.8772265,19.2594647 C39.5595752,25.9835882 44.069299,31.7154109 50.4623534,33.9839566 C56.8557099,36.2528031 63.9891081,34.6529099 68.7882033,29.8739846 C70.4449906,28.2241606 72.10208,26.5740357 73.7588673,24.9242116 C75.8297759,22.8620067 77.9009866,20.799501 79.9721973,18.7372961 C80.2310609,18.4795205 80.4899244,18.2214441 80.748788,17.9636685 C80.8780688,17.8349311 81.0076516,17.7061937 81.1369324,17.5771555 C81.1653258,17.5488814 81.2471835,17.5320372 81.1952295,17.4806024 C81.1629093,17.4481173 81.1305891,17.4159329 81.098269,17.3837486 C81.0336286,17.3193799 80.9689882,17.2550112 80.9040458,17.1903417 C80.3863186,16.6747904 79.8685914,16.1592392 79.3508643,15.643688 C78.3151079,14.6122848 77.2796536,13.5811823 76.2441993,12.5500799 C75.8297759,12.137699 75.4156546,11.7250174 75.0015333,11.3126366 C73.344746,12.9627615 71.6879586,14.6122848 70.0308693,16.2624096 C70.4449906,16.6747904 70.859414,17.0871713 71.2735353,17.4998529" id="Fill-5-Copy"></path>
                    <path d="M70.108648,31.0630273 C70.5635477,31.4323923 71.0341544,31.7770929 71.5240928,32.0992345 C77.1861741,35.825971 84.4974932,35.9727545 90.3057706,32.4761192 C96.1140481,28.9794839 99.3811097,22.4650643 98.6984582,15.7406963 C98.0161087,9.01662902 93.5063795,3.28485422 87.1133174,1.01602669 C80.7202552,-1.25280084 73.5865463,0.347078998 68.7874454,5.12626508 C67.1306561,6.77607536 65.4738668,8.42588565 63.8167754,10.0756959 C61.7458643,12.1381844 59.6749531,14.200372 57.60374,16.2628605 C57.3448761,16.5206339 57.0860122,16.7784074 56.8271483,17.0361809 C56.6975653,17.165218 56.5679823,17.2939543 56.4387014,17.4229914 C56.4103079,17.4509645 56.3287522,17.4681093 56.3804042,17.5195437 L56.4776669,17.6160959 C56.5423074,17.6807649 56.6069478,17.7451331 56.6715883,17.8095012 C57.1893161,18.3250482 57.7073459,18.8408959 58.2250737,19.3564428 C59.2605293,20.3875366 60.2959848,21.4189312 61.3317425,22.450025 L62.57441,23.687458 L67.5447779,18.7377263 C67.1306561,18.3250482 66.7165343,17.9126708 66.3021104,17.5002934 C67.9712841,15.8381509 69.6404578,14.1760084 71.3096315,12.5141667 C71.8853545,11.9405681 72.4613795,11.3672703 73.0371024,10.7936717 C73.4614942,10.3710676 73.8741058,9.93823681 74.3302137,9.54691444 C75.0569657,8.92308463 75.8335574,8.41986993 76.7007665,8.0108012 C81.1352832,5.9197381 86.4321761,7.15055372 89.4787352,10.9801589 C92.5271068,14.8115689 92.5171388,20.231128 89.4542685,24.051108 C86.3944188,27.8677794 81.0957136,29.0796456 76.6699566,26.9750471 C76.1277621,26.7172736 75.6166796,26.4188941 75.1261371,26.0732912 C73.4536407,27.7366368 71.7811444,29.3996817 70.108648,31.0630273" id="Fill-7-Copy"></path>
                </g>
            </g>
        </g>
    </g>
</svg>