<?xml version="1.0" encoding="UTF-8"?>
<svg width="211px" height="78px" viewBox="0 0 211 78" version="1.1" xmlns="http://www.w3.org/2000/svg" xmlns:xlink="http://www.w3.org/1999/xlink">
    <!-- Generator: Sketch 52.3 (67297) - http://www.bohemiancoding.com/sketch -->
    <title>BG logo Copy</title>
    <desc>Created with Sketch.</desc>
    <defs>
        <polygon id="path-1" points="0.000190519187 0.038808589 210.99619 0.038808589 210.99619 78 0.000190519187 78"></polygon>
    </defs>
    <g id="Titta-här!" stroke="none" stroke-width="1" fill="none" fill-rule="evenodd">
        <g id="HEADER-+-FOOTER" transform="translate(-360.000000, -4269.000000)">
            <g id="BG-logo-Copy" transform="translate(360.000000, 4269.000000)">
                <g id="Group-11">
                    <mask id="mask-2" fill="white">
                        <use xlink:href="#path-1"></use>
                    </mask>
                    <g id="Clip-10"></g>
                    <path d="M38.7989467,0.038808589 L210.99638,0.038808589 L210.99638,39.019189 C210.99638,60.5476675 193.625317,78.0000479 172.197624,78.0000479 L0.000190519187,78.0000479 L0.000190519187,39.019189 C0.000190519187,17.491189 17.3707774,0.038808589 38.7989467,0.038808589" id="Fill-9" fill="#FE6658" mask="url(#mask-2)"></path>
                </g>
                <path d="M55.8,38.9997594 L55.8,67 L67,67 L67,38.9997594 C67,23.535884 54.4640083,11 39,11 C23.5359917,11 11,23.535884 11,38.9997594 L11,67 L22.2,67 L22.2,38.9997594 C22.2,29.7220117 29.7216913,22.200385 39,22.200385 C48.2783087,22.200385 55.8,29.7220117 55.8,38.9997594" id="Fill-12" fill="#FFFFFF"></path>
                <path d="M183.200193,39.0002406 C183.200193,29.7220117 190.722013,22.200385 200,22.200385 L200,11 C184.536207,11 172,23.5363653 172,39.0002406 L172,67 L183.200193,67 L183.200193,39.0002406 Z" id="Fill-14" fill="#FFFFFF"></path>
                <path d="M123.304133,38.9995763 C120.668511,41.6585274 118.032412,44.3179598 115.396313,46.9773922 C114.487083,47.8946701 113.577376,48.8124294 112.667669,49.7301886 C111.997434,50.405875 111.346281,51.0988867 110.625957,51.7245222 C109.477732,52.7231328 108.25175,53.5277964 106.881704,54.1827887 C99.8788206,57.5284951 91.5135234,55.5591869 86.7016648,49.4318086 C81.887421,43.3010614 81.9036402,34.6302339 86.7407817,28.5182558 C91.5731528,22.4110903 99.9413122,20.4721013 106.930839,23.8399456 C107.787118,24.2523839 108.593785,24.7302732 109.368491,25.2827575 C112.009837,22.6214001 114.651184,19.9600427 117.29253,17.2991666 C116.574114,16.7081816 115.830893,16.1566598 115.057618,15.6412324 C106.115585,9.67844428 94.5689367,9.44359032 85.3960182,15.0382159 C76.2230997,20.6328416 71.0634821,31.0559299 72.1411056,41.8149363 C73.2187292,52.5734616 80.3408714,61.7443162 90.437331,65.3744462 C100.534268,69.0045762 111.799941,66.444283 119.379084,58.798054 C121.995624,56.1583533 124.612642,53.5186525 127.229183,50.8789517 C130.499739,47.5789648 133.770772,44.2794592 137.041806,40.978991 C137.450625,40.567034 137.859445,40.1541146 138.268265,39.7421576 C138.472436,39.5356979 138.677084,39.3297194 138.881255,39.1232597 C138.926097,39.0780214 139.055373,39.051071 138.973323,38.9687758 C138.92228,38.9168 138.871238,38.8657866 138.820195,38.8138107 C138.718109,38.7103402 138.616023,38.6078322 138.513461,38.504843 C137.695822,37.6794853 136.878183,36.8546089 136.060544,36.0297325 C134.424788,34.3794984 132.78951,32.7302269 131.154232,31.0799928 C130.499739,30.4201879 129.845723,29.760383 129.191707,29.1000969 C126.575167,31.7397976 123.958626,34.3794984 121.341609,37.0196805 C121.995624,37.6794853 122.650117,38.3397715 123.304133,38.9995763" id="Fill-16" fill="#FFFFFF"></path>
                <path d="M121.707301,60.7010347 C122.425717,61.2920246 123.16894,61.8430697 123.942692,62.3589827 C132.884736,68.3218204 144.431398,68.5561951 153.604328,62.9615229 C162.777257,57.367332 167.936881,46.9441569 166.858779,36.1850609 C165.781154,25.4264461 158.659004,16.2555151 148.562532,12.6253549 C138.46606,8.99567601 127.199896,11.5555092 119.620744,19.2018018 L111.770636,27.1214513 L101.958478,37.0205319 C101.549658,37.4329736 101.140838,37.8454152 100.732018,38.2578569 C100.527369,38.4643183 100.322721,38.6707798 100.118549,38.8762787 C100.073708,38.9215173 99.944908,38.9489493 100.026481,39.0317264 C100.077524,39.0827401 100.129044,39.1342352 100.180087,39.1862115 C100.282173,39.2892016 100.384258,39.3921917 100.486344,39.4951818 C101.303984,40.3200651 102.122101,41.1449483 102.939741,41.9703129 C104.575022,43.6200794 106.210302,45.2703273 107.846059,46.9196126 C108.500076,47.5799042 109.154569,48.2397146 109.808586,48.9000062 C112.42513,46.2598022 115.041673,43.6200794 117.658217,40.9798754 C117.0042,40.3200651 116.350184,39.6602547 115.69569,39.0004443 C118.331792,36.3409898 120.967894,33.6815353 123.603997,31.0225621 C124.513228,30.1047952 125.422936,29.1875096 126.332167,28.2697428 C127.002403,27.5935695 127.654034,26.9015146 128.374359,26.2749113 C129.522108,25.2767736 130.748568,24.4721034 132.118139,23.8171056 C139.121508,20.4713713 147.486815,22.4406959 152.298203,28.567644 C157.112452,34.6989235 157.09671,43.3693419 152.259563,49.4818521 C147.427186,55.5890684 139.059016,57.5275923 132.069481,54.1602012 C131.213201,53.7477596 130.406056,53.2703475 129.631349,52.7173773 C126.99,55.3782756 124.34865,58.0401364 121.707301,60.7010347" id="Fill-18" fill="#FFFFFF"></path>
            </g>
        </g>
    </g>
</svg>